<svg width="23" height="23" viewBox="0 0 23 23" fill="none" xmlns="http://www.w3.org/2000/svg">
<path d="M4.95927 10.361C6.80639 13.9398 9.51934 16.6527 13.0981 18.4998L15.8111 15.7869C16.1959 15.4021 16.6192 15.3059 17.081 15.4983C18.4663 15.96 19.9286 16.1909 21.4679 16.1909C21.8142 16.1909 22.1028 16.3064 22.3337 16.5373C22.5646 16.7682 22.6801 17.0568 22.6801 17.4031V21.7323C22.6801 22.0786 22.5646 22.3672 22.3337 22.5981C22.1028 22.829 21.8142 22.9445 21.4679 22.9445C15.6956 22.9445 10.7508 20.9049 6.63322 16.8259C2.55417 12.7084 0.514648 7.76346 0.514648 1.99122C0.514648 1.64489 0.630093 1.35628 0.860983 1.12539C1.09187 0.894498 1.38048 0.779053 1.72682 0.779053H6.056C6.40233 0.779053 6.69095 0.894498 6.92184 1.12539C7.15273 1.35628 7.26817 1.64489 7.26817 1.99122C7.26817 3.53049 7.49906 4.99279 7.96084 6.37813C8.11477 6.87839 8.01856 7.30168 7.67223 7.64802L4.95927 10.361Z" fill="#A4A4A4"/>
</svg>
