<svg width="19" height="26" viewBox="0 0 19 26" fill="none" xmlns="http://www.w3.org/2000/svg">
<path d="M7.02416 11.4075C7.68076 12.0175 8.46047 12.3225 9.3633 12.3225C10.2661 12.3225 11.0253 12.0175 11.6409 11.4075C12.2975 10.7568 12.6258 9.98406 12.6258 9.08936C12.6258 8.19466 12.2975 7.44229 11.6409 6.83227C11.0253 6.18158 10.2661 5.85623 9.3633 5.85623C8.46047 5.85623 7.68076 6.18158 7.02416 6.83227C6.40859 7.44229 6.10081 8.19466 6.10081 9.08936C6.10081 9.98406 6.40859 10.7568 7.02416 11.4075ZM2.83833 2.68411C4.64398 0.894702 6.81897 0 9.3633 0C11.9076 0 14.0621 0.894702 15.8267 2.68411C17.6324 4.43284 18.5352 6.56793 18.5352 9.08936C18.5352 10.3501 18.2069 11.7938 17.5503 13.4205C16.9347 15.0473 16.1755 16.5723 15.2727 17.9957C14.3699 19.4191 13.4671 20.7612 12.5642 22.0219C11.7024 23.2419 10.9638 24.218 10.3482 24.95L9.3633 25.987C9.11707 25.7023 8.78877 25.3363 8.3784 24.889C7.96802 24.401 7.22935 23.4656 6.16237 22.0829C5.09539 20.6595 4.15153 19.2971 3.33078 17.9957C2.55107 16.6537 1.83291 15.1489 1.17631 13.4815C0.519707 11.8141 0.191406 10.3501 0.191406 9.08936C0.191406 6.56793 1.07371 4.43284 2.83833 2.68411Z" fill="#A4A4A4"/>
</svg>
