<svg width="159" height="45" viewBox="0 0 159 45" fill="none" xmlns="http://www.w3.org/2000/svg">
<path d="M0 23.0863C0 13.4751 7.79142 5.68372 17.4026 5.68372H102.675L96.0816 40.489H0V23.0863Z" fill="url(#paint0_linear)"/>
<path d="M100.935 5.68372H158.364V23.0863C158.364 32.6975 150.572 40.489 140.961 40.489H89.6235L100.935 5.68372Z" fill="url(#paint1_linear)"/>
<path d="M22.9439 33.6727H20.0758L20.7296 29.8978H11.7773L11.1236 33.6621H8.20275L9.13066 27.3565L10.1008 27.3776C11.4715 26.4919 12.4592 24.8891 13.0637 22.5694L13.2852 21.6942L14.9618 14.545H24.7576L22.5327 27.3565H24.2831L22.9439 33.6727ZM13.7386 27.4093L19.4431 27.3565L21.2252 17.1073H17.4819L16.2482 22.3585C15.6788 24.5517 14.8422 26.2353 13.7386 27.4093ZM37.9976 25.6694H36.5847L35.8571 29.8978H32.873L33.6111 25.6694H32.409L29.4671 29.8978H25.6922L30.3423 23.7609L27.8644 18.4992L31.3968 18.4887L32.9574 22.7486H34.1173L34.8554 18.4887H37.8289L37.0908 22.7486H38.082L41.1293 18.4887H45.0097L40.5177 24.0245L42.9746 29.8978H39.4633L37.9976 25.6694ZM54.2745 18.4887H57.3429L55.3711 29.8978H52.387L53.5785 23.065L48.8019 29.8978H45.7229L47.7053 18.4887H50.6894L49.4978 25.3109L54.2745 18.4887ZM68.5268 29.8978H65.5322L66.3019 25.5113H62.6535L61.8838 29.8978H58.9103L60.8926 18.4887H63.8662L63.0648 23.065H66.7237L67.5145 18.4887H70.5092L68.5268 29.8978ZM75.0711 19.2795L73.5633 18.3938C74.2873 17.3534 74.7407 16.4395 74.9235 15.6522L75.2715 13.7015H77.644L77.4014 15.262C77.1624 16.8156 76.3857 18.1547 75.0711 19.2795ZM82.3641 26.6817C82.4766 26.1193 82.0864 25.7116 81.1937 25.4585L80.2341 25.216C77.9635 24.5904 76.8599 23.4867 76.9232 21.9051C76.9583 20.8295 77.4328 19.9543 78.3467 19.2795C79.2675 18.5976 80.3747 18.2637 81.6682 18.2778C82.9546 18.2918 83.995 18.6328 84.7893 19.3006C85.5837 19.9684 85.9879 20.8576 86.0019 21.9683L83.0495 21.9578C83.0635 20.9807 82.5785 20.4851 81.5944 20.471C81.1304 20.471 80.7262 20.587 80.3817 20.819C80.0443 21.051 79.8369 21.3638 79.7596 21.7574C79.6542 22.3198 80.0795 22.717 81.0355 22.949L81.4573 23.0439C82.4274 23.2758 83.169 23.543 83.6822 23.8452C84.1953 24.1405 84.589 24.5095 84.8631 24.9524C85.1443 25.3953 85.2744 25.926 85.2533 26.5446C85.2322 27.2687 84.9967 27.9013 84.5468 28.4426C84.1039 28.9839 83.4924 29.4022 82.7121 29.6974C81.9388 29.9927 81.1234 30.1297 80.2658 30.1087C79.0004 30.0946 77.946 29.7326 77.1024 29.0226C76.2589 28.3056 75.83 27.3812 75.816 26.2494L78.6208 26.2705C78.6489 27.3601 79.2324 27.9119 80.3712 27.926C80.9195 27.926 81.3694 27.8135 81.7209 27.5885C82.0794 27.3636 82.2938 27.0613 82.3641 26.6817Z" fill="white"/>
<path d="M119.114 24.7732C118.995 25.8346 118.633 26.7766 118.028 27.5991C117.424 28.4145 116.636 29.0437 115.666 29.4865C114.696 29.9224 113.649 30.1297 112.524 30.1087C111.512 30.0876 110.63 29.8556 109.877 29.4127C109.125 28.9628 108.531 28.3161 108.095 27.4725C107.667 26.622 107.424 25.6448 107.368 24.5412C107.319 23.6765 107.407 22.601 107.631 21.3146C107.863 20.0281 108.271 18.8858 108.855 17.8876C109.445 16.8894 110.145 16.0986 110.953 15.5151C112.092 14.6997 113.392 14.306 114.854 14.3341C116.443 14.3622 117.701 14.8543 118.629 15.8104C119.564 16.7594 120.077 18.0809 120.169 19.7751L117.09 19.7645C117.09 18.7944 116.897 18.0844 116.51 17.6345C116.123 17.1847 115.522 16.9456 114.707 16.9175C113.652 16.8824 112.784 17.2585 112.102 18.0458C111.428 18.8331 110.974 19.9825 110.742 21.4938C110.517 22.963 110.419 24.0632 110.447 24.7942C110.482 25.7222 110.689 26.4075 111.069 26.8504C111.449 27.2863 111.979 27.5147 112.661 27.5358C113.603 27.571 114.355 27.3495 114.918 26.8715C115.487 26.3865 115.863 25.694 116.046 24.7942L119.114 24.7732ZM124.552 29.8978H121.557L123.539 18.4887H126.534L124.552 29.8978ZM123.887 15.5889C123.873 15.1179 124.028 14.7278 124.351 14.4185C124.675 14.1092 125.065 13.9545 125.522 13.9545C125.972 13.9405 126.362 14.0775 126.692 14.3658C127.022 14.654 127.195 15.0266 127.209 15.4835C127.223 15.9193 127.075 16.2989 126.766 16.6223C126.464 16.9456 126.066 17.1144 125.574 17.1284C125.132 17.1425 124.741 17.0089 124.404 16.7277C124.074 16.4465 123.901 16.0669 123.887 15.5889ZM134.301 15.6838L133.806 18.4887H135.704L135.314 20.7241H133.416L132.446 26.4392C132.403 26.7977 132.432 27.0718 132.53 27.2616C132.628 27.4514 132.867 27.5534 133.247 27.5674C133.359 27.5745 133.662 27.5569 134.154 27.5147L133.943 29.845C133.416 30.0208 132.846 30.1016 132.235 30.0876C131.258 30.0735 130.53 29.7677 130.052 29.1702C129.574 28.5727 129.377 27.7643 129.461 26.745L130.442 20.7241H128.829L129.219 18.4887H130.832L131.317 15.6838H134.301ZM141.489 25.5534L144.747 18.4887H148.058L141.383 31.6165C140.905 32.6218 140.343 33.3599 139.696 33.8309C139.057 34.3018 138.315 34.5373 137.471 34.5373C137.141 34.5373 136.663 34.4635 136.037 34.3159L136.259 31.9961L136.67 32.0172C137.64 32.0453 138.35 31.6903 138.8 30.9522L139.454 29.7396L137.587 18.4887H140.666L141.489 25.5534Z" fill="white"/>
<rect x="101.892" width="3.48052" height="46.4288" transform="rotate(19.1562 101.892 0)" fill="white"/>
<defs>
<linearGradient id="paint0_linear" x1="0" y1="5.68372" x2="97.4036" y2="51.6582" gradientUnits="userSpaceOnUse">
<stop stop-color="#ED1922"/>
<stop offset="1" stop-color="#960C13"/>
<stop offset="1" stop-color="#D2222A"/>
</linearGradient>
<linearGradient id="paint1_linear" x1="115.624" y1="17.9959" x2="161.963" y2="40.4908" gradientUnits="userSpaceOnUse">
<stop stop-color="#2F3C7C"/>
<stop offset="1" stop-color="#555F90"/>
</linearGradient>
</defs>
</svg>
