<svg width="27" height="17" viewBox="0 0 27 17" fill="none" xmlns="http://www.w3.org/2000/svg">
<path fill-rule="evenodd" clip-rule="evenodd" d="M23.0234 10.5423C23.9107 11.4171 24.8473 12.2402 25.6432 13.2032C25.9948 13.6312 26.3276 14.0728 26.5823 14.5695C26.9431 15.2755 26.6163 16.0524 25.9893 16.0946L22.0921 16.0928C21.087 16.177 20.2851 15.7684 19.6109 15.0745C19.0713 14.5195 18.5716 13.9289 18.0528 13.3552C17.8401 13.1207 17.6174 12.9001 17.3515 12.7257C16.8195 12.377 16.3577 12.4837 16.0536 13.044C15.744 13.6139 15.6738 14.2449 15.6433 14.88C15.6016 15.8067 15.3242 16.0503 14.4024 16.0927C12.4323 16.1865 10.5626 15.8856 8.82578 14.882C7.29449 13.9974 6.10705 12.7485 5.0735 11.3346C3.06118 8.58143 1.52013 5.55617 0.135103 2.44615C-0.176656 1.74546 0.0513406 1.36933 0.816983 1.35602C2.08837 1.33108 3.35958 1.33286 4.63245 1.35425C5.14918 1.36188 5.49126 1.66115 5.69078 2.15407C6.37864 3.86191 7.22031 5.48676 8.27679 6.99287C8.55814 7.39385 8.84503 7.79482 9.25356 8.07705C9.70551 8.38955 10.0496 8.28597 10.2622 7.77761C10.3971 7.45526 10.4562 7.10807 10.4866 6.76283C10.5873 5.57507 10.6006 4.38936 10.424 3.20577C10.3155 2.4671 9.90344 1.9889 9.17349 1.84912C8.80099 1.77785 8.85645 1.63789 9.03681 1.42321C9.35006 1.05294 9.64468 0.822449 10.232 0.822449H14.6364C15.3298 0.960634 15.4838 1.27517 15.5787 1.97967L15.5825 6.91983C15.575 7.19256 15.7174 8.00188 16.2039 8.1824C16.5933 8.31091 16.85 7.99638 17.0836 7.74708C18.1381 6.61692 18.8908 5.2813 19.5631 3.8983C19.8615 3.29017 20.1181 2.65862 20.3668 2.0276C20.551 1.55935 20.8401 1.32895 21.3624 1.33916L25.6015 1.34297C25.7271 1.34297 25.8543 1.34484 25.9761 1.36587C26.6904 1.48879 26.8861 1.79907 26.6655 2.50339C26.3179 3.60843 25.6415 4.52932 24.9802 5.45446C24.2733 6.44217 23.5172 7.39607 22.8162 8.38963C22.1721 9.29694 22.2233 9.75427 23.0234 10.5423Z" fill="#A4A4A4"/>
</svg>
