<svg width="25" height="21" viewBox="0 0 25 21" fill="none" xmlns="http://www.w3.org/2000/svg">
<path d="M22.5883 5.77181V3.32673L12.8306 9.411L3.0729 3.32673V5.77181L12.8306 11.7992L22.5883 5.77181ZM22.5883 0.881653C23.235 0.881653 23.7866 1.12806 24.2431 1.62086C24.7376 2.11367 24.9849 2.68229 24.9849 3.32673V17.8835C24.9849 18.5279 24.7376 19.0965 24.2431 19.5893C23.7866 20.0822 23.235 20.3286 22.5883 20.3286H3.0729C2.42619 20.3286 1.85556 20.0822 1.36102 19.5893C0.90452 19.0965 0.67627 18.5279 0.67627 17.8835V3.32673C0.67627 2.68229 0.90452 2.11367 1.36102 1.62086C1.85556 1.12806 2.42619 0.881653 3.0729 0.881653H22.5883Z" fill="#A4A4A4"/>
</svg>
